# xmcd
#
# Track frame offsets: 
#        150
#        12890
#        28362
#        43850
#        59642
#        71472
#        85907
#        100785
#        115960
#        130852
#        146587
#        161275
#        164642
#        190352
#
# Disc length: 3037 seconds
#
# Revision: 6
# Processed by: cddbd v1.5.2PL0 Copyright (c) Steve Scherf et al.
# Submitted via: ExactAudioCopyFreeDBPlugin 1.0
#
DISCID=c70bdb0e
DTITLE=Bessie Smith - Empress of the Blues:  The Complete Recordings [
DTITLE=Columbia-Legacy Roots n' Blues box set]
DYEAR=1996
DGENRE=Blues
TTITLE0=Need a Little Sugar in My Bowl
TTITLE1=Safety Mama
TTITLE2=Do Your Duty
TTITLE3=Gimme a Pigfoot
TTITLE4=Take Me for a Buggy Ride
TTITLE5=I'm Down in the Dumps
TTITLE6=The Yellow Dog Blues
TTITLE7=Soft Pedal Blues
TTITLE8=Nashville Women's Blues
TTITLE9=Careless Love Blues
TTITLE10=Muddy Water (A Mississippi Moan)
TTITLE11=Band Intro (from the soundtrack to the 1929 film "St. Louis B
TTITLE11=lues")
TTITLE12=Crap Game (from the soundtrack to the 1929 film "St. Louis Bl
TTITLE12=ues")
TTITLE13=St. Louis Blues (from the soundtrack to the 1929 film "St. Lo
TTITLE13=uis Blues")
EXTD=
EXTT0=
EXTT1=
EXTT2=
EXTT3=
EXTT4=
EXTT5=
EXTT6=
EXTT7=
EXTT8=
EXTT9=
EXTT10=
EXTT11=
EXTT12=
EXTT13=
PLAYORDER=
